# xmcd CD database file
#
# Track frame offsets:
#	150
#	1528
#	21148
#	33792
#	41477
#	51404
#	58091
#	75474
#	94767
#	105924
#	116472
#	133451
#	150551
#	170192
#	174585
#	179157
#	184076
#	189300
#	198261
#	204096
#
# Disc length: 2838 seconds
#
# Revision: 0
# Processed by: cddbd v1.5.1PL0 Copyright (c) Steve Scherf et al.
# Submitted via: CDex 1.51
#
DISCID=010b1414
DTITLE=Trombone de Costa Rica - Contrastes
DYEAR=2005
DGENRE=Jazz
TTITLE0=Trombones de Costa Rica - Contrastes
TTITLE1=Trombones de Costa Rica - Pasillo de Rondó
TTITLE2=Trombones de Costa Rica - Sonata
TTITLE3=Trombones de Costa Rica - Tres Piezas Mexicanas-Sandunga
TTITLE4=Trombones de Costa Rica - Tres Piezas Mexicanas-Carmen Carmela
TTITLE5=Trombones de Costa Rica - Tres Piezas Mexicanas-La Liorona
TTITLE6=Trombones de Costa Rica - Alma Lianera
TTITLE7=Trombones de Costa Rica - Noche Inolvidable
TTITLE8=Trombones de Costa Rica - Danzas Eslovacas No.8
TTITLE9=Trombones de Costa Rica - Fuga sobre Cana Dulce
TTITLE10=Trombones de Costa Rica - Guajira y Punto
TTITLE11=Trombones de Costa Rica - Mambazo
TTITLE12=Trombones de Costa Rica - Salséalo
TTITLE13=Trombones de Costa Rica - Variaciones sobre un Tema de Bach
TTITLE14=Trombones de Costa Rica - Var 1. Variando un poco
TTITLE15=Trombones de Costa Rica - Var 2. A la Bach
TTITLE16=Trombones de Costa Rica - Var 3. Qué feeling!
TTITLE17=Trombones de Costa Rica - Var 4. Desvariando bastante
TTITLE18=Trombones de Costa Rica - Var 5. Minué en Salsa Barroca
TTITLE19=Trombones de Costa Rica - Var 6. Juan Sebastián y su Combo Guajiro
EXTD=YEAR: 2005
EXTT0=
EXTT1=
EXTT2=
EXTT3=
EXTT4=
EXTT5=
EXTT6=
EXTT7=
EXTT8=
EXTT9=
EXTT10=
EXTT11=
EXTT12=
EXTT13=
EXTT14=
EXTT15=
EXTT16=
EXTT17=
EXTT18=
EXTT19=
PLAYORDER=
